<?xml version="1.0" encoding="UTF-8" standalone="no"?>
<!DOCTYPE svg PUBLIC "-//W3C//DTD SVG 1.1//EN"
 "http://www.w3.org/Graphics/SVG/1.1/DTD/svg11.dtd">
<!-- Generated by graphviz version 15.0.0 (20260523.1842)
 -->
<!-- Title: tb Pages: 1 -->
<svg width="1744pt" height="620pt"
 viewBox="0.00 0.00 1744.00 620.00" xmlns="http://www.w3.org/2000/svg" xmlns:xlink="http://www.w3.org/1999/xlink">
<g id="graph0" class="graph" transform="scale(1 1) rotate(0) translate(4 616)">
<title>tb</title>
<polygon fill="white" stroke="none" points="-4,4 -4,-616 1740,-616 1740,4 -4,4"/>
<!-- application -->
<g id="node1" class="node">
<title>application</title>
<path fill="#c0392b" stroke="black" d="M936.3,-36C936.3,-36 891.7,-36 891.7,-36 885.7,-36 879.7,-30 879.7,-24 879.7,-24 879.7,-12 879.7,-12 879.7,-6 885.7,0 891.7,0 891.7,0 936.3,0 936.3,0 942.3,0 948.3,-6 948.3,-12 948.3,-12 948.3,-24 948.3,-24 948.3,-30 942.3,-36 936.3,-36"/>
<text xml:space="preserve" text-anchor="middle" x="914" y="-14.7" font-family="Helvetica,sans-Serif" font-size="11.00" fill="white">application</text>
</g>
<!-- actor -->
<g id="node2" class="node">
<title>actor</title>
<path fill="#4f9e4f" stroke="black" d="M374,-468C374,-468 344,-468 344,-468 338,-468 332,-462 332,-456 332,-456 332,-444 332,-444 332,-438 338,-432 344,-432 344,-432 374,-432 374,-432 380,-432 386,-438 386,-444 386,-444 386,-456 386,-456 386,-462 380,-468 374,-468"/>
<text xml:space="preserve" text-anchor="middle" x="359" y="-446.7" font-family="Helvetica,sans-Serif" font-size="11.00" fill="white">actor</text>
</g>
<!-- application&#45;&gt;actor -->
<g id="edge1" class="edge">
<title>application&#45;&gt;actor</title>
<path fill="none" stroke="black" d="M879.44,-20.09C776.8,-23.71 475.22,-37.1 384,-72 282.71,-110.76 236.1,-119.3 187,-216 143.68,-301.32 259.83,-388.56 322.29,-427.71"/>
<polygon fill="black" stroke="black" points="320.18,-430.52 330.53,-432.78 323.85,-424.56 320.18,-430.52"/>
</g>
<!-- util -->
<g id="node3" class="node">
<title>util</title>
<path fill="#1a7f37" stroke="black" d="M511,-540C511,-540 481,-540 481,-540 475,-540 469,-534 469,-528 469,-528 469,-516 469,-516 469,-510 475,-504 481,-504 481,-504 511,-504 511,-504 517,-504 523,-510 523,-516 523,-516 523,-528 523,-528 523,-534 517,-540 511,-540"/>
<text xml:space="preserve" text-anchor="middle" x="496" y="-518.7" font-family="Helvetica,sans-Serif" font-size="11.00" fill="white">util</text>
</g>
<!-- application&#45;&gt;util -->
<g id="edge2" class="edge">
<title>application&#45;&gt;util</title>
<path fill="none" stroke="black" d="M879.29,-20.66C712.33,-29.07 0,-70.27 0,-161 0,-161 0,-161 0,-235 0,-372.64 84.26,-400.14 204,-468 285.56,-514.23 398.7,-521.51 457.32,-521.86"/>
<polygon fill="black" stroke="black" points="457.13,-525.36 467.12,-521.85 457.12,-518.36 457.13,-525.36"/>
</g>
<!-- rule&#45;engine&#45;api -->
<g id="node4" class="node">
<title>rule&#45;engine&#45;api</title>
<path fill="#c2884f" stroke="black" d="M607.69,-252C607.69,-252 542.31,-252 542.31,-252 536.31,-252 530.31,-246 530.31,-240 530.31,-240 530.31,-228 530.31,-228 530.31,-222 536.31,-216 542.31,-216 542.31,-216 607.69,-216 607.69,-216 613.69,-216 619.69,-222 619.69,-228 619.69,-228 619.69,-240 619.69,-240 619.69,-246 613.69,-252 607.69,-252"/>
<text xml:space="preserve" text-anchor="middle" x="575" y="-230.7" font-family="Helvetica,sans-Serif" font-size="11.00" fill="white">rule&#45;engine&#45;api</text>
</g>
<!-- application&#45;&gt;rule&#45;engine&#45;api -->
<g id="edge3" class="edge">
<title>application&#45;&gt;rule&#45;engine&#45;api</title>
<path fill="none" stroke="black" d="M886.55,-36.33C826,-74.55 680.95,-166.11 612.27,-209.47"/>
<polygon fill="black" stroke="black" points="610.58,-206.4 603.99,-214.7 614.32,-212.32 610.58,-206.4"/>
</g>
<!-- cluster&#45;api -->
<g id="node5" class="node">
<title>cluster&#45;api</title>
<path fill="#7aa6c2" stroke="black" d="M1102.37,-396C1102.37,-396 1059.63,-396 1059.63,-396 1053.63,-396 1047.63,-390 1047.63,-384 1047.63,-384 1047.63,-372 1047.63,-372 1047.63,-366 1053.63,-360 1059.63,-360 1059.63,-360 1102.37,-360 1102.37,-360 1108.37,-360 1114.37,-366 1114.37,-372 1114.37,-372 1114.37,-384 1114.37,-384 1114.37,-390 1108.37,-396 1102.37,-396"/>
<text xml:space="preserve" text-anchor="middle" x="1081" y="-374.7" font-family="Helvetica,sans-Serif" font-size="11.00" fill="white">cluster&#45;api</text>
</g>
<!-- application&#45;&gt;cluster&#45;api -->
<g id="edge4" class="edge">
<title>application&#45;&gt;cluster&#45;api</title>
<path fill="none" stroke="black" d="M948.58,-18.13C1034.73,-17.92 1252,-30.36 1252,-161 1252,-161 1252,-161 1252,-235 1252,-300.79 1176.16,-341.93 1125.49,-362.08"/>
<polygon fill="black" stroke="black" points="1124.29,-358.79 1116.2,-365.63 1126.79,-365.33 1124.29,-358.79"/>
</g>
<!-- version&#45;control -->
<g id="node6" class="node">
<title>version&#45;control</title>
<path fill="#7aa6c2" stroke="black" d="M272.07,-252C272.07,-252 207.93,-252 207.93,-252 201.93,-252 195.93,-246 195.93,-240 195.93,-240 195.93,-228 195.93,-228 195.93,-222 201.93,-216 207.93,-216 207.93,-216 272.07,-216 272.07,-216 278.07,-216 284.07,-222 284.07,-228 284.07,-228 284.07,-240 284.07,-240 284.07,-246 278.07,-252 272.07,-252"/>
<text xml:space="preserve" text-anchor="middle" x="240" y="-230.7" font-family="Helvetica,sans-Serif" font-size="11.00" fill="white">version&#45;control</text>
</g>
<!-- application&#45;&gt;version&#45;control -->
<g id="edge5" class="edge">
<title>application&#45;&gt;version&#45;control</title>
<path fill="none" stroke="black" d="M879.24,-20.61C785.59,-25.32 529.82,-40.75 452,-72 374.25,-103.22 300.3,-170.96 263.76,-207.84"/>
<polygon fill="black" stroke="black" points="261.68,-204.97 257.19,-214.57 266.68,-209.87 261.68,-204.97"/>
</g>
<!-- rule&#45;engine&#45;components -->
<g id="node7" class="node">
<title>rule&#45;engine&#45;components</title>
<path fill="#b05fa0" stroke="black" d="M614.31,-108C614.31,-108 503.69,-108 503.69,-108 497.69,-108 491.69,-102 491.69,-96 491.69,-96 491.69,-84 491.69,-84 491.69,-78 497.69,-72 503.69,-72 503.69,-72 614.31,-72 614.31,-72 620.31,-72 626.31,-78 626.31,-84 626.31,-84 626.31,-96 626.31,-96 626.31,-102 620.31,-108 614.31,-108"/>
<text xml:space="preserve" text-anchor="middle" x="559" y="-86.7" font-family="Helvetica,sans-Serif" font-size="11.00" fill="white">rule&#45;engine&#45;components</text>
</g>
<!-- application&#45;&gt;rule&#45;engine&#45;components -->
<g id="edge6" class="edge">
<title>application&#45;&gt;rule&#45;engine&#45;components</title>
<path fill="none" stroke="black" d="M879.31,-25.84C823.69,-36.81 713.14,-58.61 637.63,-73.49"/>
<polygon fill="black" stroke="black" points="637.38,-69.98 628.24,-75.35 638.73,-76.85 637.38,-69.98"/>
</g>
<!-- transport&#45;api -->
<g id="node8" class="node">
<title>transport&#45;api</title>
<path fill="#c2884f" stroke="black" d="M829.88,-252C829.88,-252 776.12,-252 776.12,-252 770.12,-252 764.12,-246 764.12,-240 764.12,-240 764.12,-228 764.12,-228 764.12,-222 770.12,-216 776.12,-216 776.12,-216 829.88,-216 829.88,-216 835.88,-216 841.88,-222 841.88,-228 841.88,-228 841.88,-240 841.88,-240 841.88,-246 835.88,-252 829.88,-252"/>
<text xml:space="preserve" text-anchor="middle" x="803" y="-230.7" font-family="Helvetica,sans-Serif" font-size="11.00" fill="white">transport&#45;api</text>
</g>
<!-- application&#45;&gt;transport&#45;api -->
<g id="edge7" class="edge">
<title>application&#45;&gt;transport&#45;api</title>
<path fill="none" stroke="black" d="M908.63,-36.49C897.29,-72.82 870.7,-155.15 855,-180 848.7,-189.97 840.26,-199.58 832.01,-207.82"/>
<polygon fill="black" stroke="black" points="829.82,-205.08 825.02,-214.52 834.66,-210.14 829.82,-205.08"/>
</g>
<!-- transport&#45;impl -->
<g id="node9" class="node">
<title>transport&#45;impl</title>
<path fill="#b05fa0" stroke="black" d="M833.62,-180C833.62,-180 774.38,-180 774.38,-180 768.38,-180 762.38,-174 762.38,-168 762.38,-168 762.38,-156 762.38,-156 762.38,-150 768.38,-144 774.38,-144 774.38,-144 833.62,-144 833.62,-144 839.62,-144 845.62,-150 845.62,-156 845.62,-156 845.62,-168 845.62,-168 845.62,-174 839.62,-180 833.62,-180"/>
<text xml:space="preserve" text-anchor="middle" x="804" y="-158.7" font-family="Helvetica,sans-Serif" font-size="11.00" fill="white">transport&#45;impl</text>
</g>
<!-- application&#45;&gt;transport&#45;impl -->
<g id="edge8" class="edge">
<title>application&#45;&gt;transport&#45;impl</title>
<path fill="none" stroke="black" d="M894.58,-36.48C884.07,-46.39 871.2,-59.33 861,-72 845.33,-91.48 830.19,-115.44 819.46,-133.59"/>
<polygon fill="black" stroke="black" points="816.44,-131.81 814.44,-142.21 822.49,-135.33 816.44,-131.81"/>
</g>
<!-- dao -->
<g id="node10" class="node">
<title>dao</title>
<path fill="#c2884f" stroke="black" d="M455,-180C455,-180 425,-180 425,-180 419,-180 413,-174 413,-168 413,-168 413,-156 413,-156 413,-150 419,-144 425,-144 425,-144 455,-144 455,-144 461,-144 467,-150 467,-156 467,-156 467,-168 467,-168 467,-174 461,-180 455,-180"/>
<text xml:space="preserve" text-anchor="middle" x="440" y="-158.7" font-family="Helvetica,sans-Serif" font-size="11.00" fill="white">dao</text>
</g>
<!-- application&#45;&gt;dao -->
<g id="edge9" class="edge">
<title>application&#45;&gt;dao</title>
<path fill="none" stroke="black" d="M879.32,-19.09C788.5,-19.97 546.36,-26.62 483,-72 463.06,-86.28 451.98,-112.36 446.08,-132.62"/>
<polygon fill="black" stroke="black" points="442.7,-131.71 443.57,-142.27 449.48,-133.47 442.7,-131.71"/>
</g>
<!-- queue -->
<g id="node11" class="node">
<title>queue</title>
<path fill="#7aa6c2" stroke="black" d="M1174,-324C1174,-324 1144,-324 1144,-324 1138,-324 1132,-318 1132,-312 1132,-312 1132,-300 1132,-300 1132,-294 1138,-288 1144,-288 1144,-288 1174,-288 1174,-288 1180,-288 1186,-294 1186,-300 1186,-300 1186,-312 1186,-312 1186,-318 1180,-324 1174,-324"/>
<text xml:space="preserve" text-anchor="middle" x="1159" y="-302.7" font-family="Helvetica,sans-Serif" font-size="11.00" fill="white">queue</text>
</g>
<!-- application&#45;&gt;queue -->
<g id="edge10" class="edge">
<title>application&#45;&gt;queue</title>
<path fill="none" stroke="black" d="M930.94,-36.1C941.15,-46.45 954.38,-59.93 966,-72 1027.05,-135.42 1047.8,-146.63 1102,-216 1117.39,-235.7 1132.55,-259.64 1143.36,-277.73"/>
<polygon fill="black" stroke="black" points="1140.33,-279.49 1148.42,-286.32 1146.36,-275.93 1140.33,-279.49"/>
</g>
<!-- script&#45;api -->
<g id="node12" class="node">
<title>script&#45;api</title>
<path fill="#7aa6c2" stroke="black" d="M1560.31,-396C1560.31,-396 1523.69,-396 1523.69,-396 1517.69,-396 1511.69,-390 1511.69,-384 1511.69,-384 1511.69,-372 1511.69,-372 1511.69,-366 1517.69,-360 1523.69,-360 1523.69,-360 1560.31,-360 1560.31,-360 1566.31,-360 1572.31,-366 1572.31,-372 1572.31,-372 1572.31,-384 1572.31,-384 1572.31,-390 1566.31,-396 1560.31,-396"/>
<text xml:space="preserve" text-anchor="middle" x="1542" y="-374.7" font-family="Helvetica,sans-Serif" font-size="11.00" fill="white">script&#45;api</text>
</g>
<!-- application&#45;&gt;script&#45;api -->
<g id="edge11" class="edge">
<title>application&#45;&gt;script&#45;api</title>
<path fill="none" stroke="black" d="M948.5,-20.28C1057.13,-24.6 1390.98,-40.2 1494,-72 1571.75,-96 1654,-79.63 1654,-161 1654,-161 1654,-161 1654,-235 1654,-285.08 1610.52,-327.88 1577.74,-353.03"/>
<polygon fill="black" stroke="black" points="1575.99,-349.97 1570.04,-358.74 1580.16,-355.6 1575.99,-349.97"/>
</g>
<!-- remote&#45;js&#45;client -->
<g id="node13" class="node">
<title>remote&#45;js&#45;client</title>
<path fill="#b05fa0" stroke="black" d="M1426.59,-180C1426.59,-180 1359.41,-180 1359.41,-180 1353.41,-180 1347.41,-174 1347.41,-168 1347.41,-168 1347.41,-156 1347.41,-156 1347.41,-150 1353.41,-144 1359.41,-144 1359.41,-144 1426.59,-144 1426.59,-144 1432.59,-144 1438.59,-150 1438.59,-156 1438.59,-156 1438.59,-168 1438.59,-168 1438.59,-174 1432.59,-180 1426.59,-180"/>
<text xml:space="preserve" text-anchor="middle" x="1393" y="-158.7" font-family="Helvetica,sans-Serif" font-size="11.00" fill="white">remote&#45;js&#45;client</text>
</g>
<!-- application&#45;&gt;remote&#45;js&#45;client -->
<g id="edge12" class="edge">
<title>application&#45;&gt;remote&#45;js&#45;client</title>
<path fill="none" stroke="black" d="M948.55,-20.31C1034.47,-24.07 1255.42,-36.96 1319,-72 1344.75,-86.19 1365.23,-113.22 1378.06,-133.79"/>
<polygon fill="black" stroke="black" points="1374.99,-135.47 1383.12,-142.27 1381,-131.88 1374.99,-135.47"/>
</g>
<!-- stats -->
<g id="node14" class="node">
<title>stats</title>
<path fill="#4f9e4f" stroke="black" d="M1290,-468C1290,-468 1260,-468 1260,-468 1254,-468 1248,-462 1248,-456 1248,-456 1248,-444 1248,-444 1248,-438 1254,-432 1260,-432 1260,-432 1290,-432 1290,-432 1296,-432 1302,-438 1302,-444 1302,-444 1302,-456 1302,-456 1302,-462 1296,-468 1290,-468"/>
<text xml:space="preserve" text-anchor="middle" x="1275" y="-446.7" font-family="Helvetica,sans-Serif" font-size="11.00" fill="white">stats</text>
</g>
<!-- application&#45;&gt;stats -->
<g id="edge13" class="edge">
<title>application&#45;&gt;stats</title>
<path fill="none" stroke="black" d="M948.55,-20.19C1071.44,-25.36 1480,-50.83 1480,-161 1480,-161 1480,-161 1480,-235 1480,-284.35 1364.9,-379.89 1307.19,-424.7"/>
<polygon fill="black" stroke="black" points="1305.1,-421.89 1299.32,-430.77 1309.37,-427.44 1305.1,-421.89"/>
</g>
<!-- edge&#45;api -->
<g id="node15" class="node">
<title>edge&#45;api</title>
<path fill="#7aa6c2" stroke="black" d="M1337.41,-252C1337.41,-252 1302.59,-252 1302.59,-252 1296.59,-252 1290.59,-246 1290.59,-240 1290.59,-240 1290.59,-228 1290.59,-228 1290.59,-222 1296.59,-216 1302.59,-216 1302.59,-216 1337.41,-216 1337.41,-216 1343.41,-216 1349.41,-222 1349.41,-228 1349.41,-228 1349.41,-240 1349.41,-240 1349.41,-246 1343.41,-252 1337.41,-252"/>
<text xml:space="preserve" text-anchor="middle" x="1320" y="-230.7" font-family="Helvetica,sans-Serif" font-size="11.00" fill="white">edge&#45;api</text>
</g>
<!-- application&#45;&gt;edge&#45;api -->
<g id="edge14" class="edge">
<title>application&#45;&gt;edge&#45;api</title>
<path fill="none" stroke="black" d="M948.58,-19.74C1027.62,-22.12 1218.31,-31.97 1266,-72 1305.36,-105.04 1316.15,-167.72 1319.04,-204.37"/>
<polygon fill="black" stroke="black" points="1315.53,-204.44 1319.65,-214.2 1322.52,-204.01 1315.53,-204.44"/>
</g>
<!-- edqs -->
<g id="node16" class="node">
<title>edqs</title>
<path fill="#7aa6c2" stroke="black" d="M1043,-252C1043,-252 1013,-252 1013,-252 1007,-252 1001,-246 1001,-240 1001,-240 1001,-228 1001,-228 1001,-222 1007,-216 1013,-216 1013,-216 1043,-216 1043,-216 1049,-216 1055,-222 1055,-228 1055,-228 1055,-240 1055,-240 1055,-246 1049,-252 1043,-252"/>
<text xml:space="preserve" text-anchor="middle" x="1028" y="-230.7" font-family="Helvetica,sans-Serif" font-size="11.00" fill="white">edqs</text>
</g>
<!-- application&#45;&gt;edqs -->
<g id="edge15" class="edge">
<title>application&#45;&gt;edqs</title>
<path fill="none" stroke="black" d="M923.14,-36.15C942.86,-73.17 989.55,-160.82 1013.41,-205.61"/>
<polygon fill="black" stroke="black" points="1010.32,-207.25 1018.11,-214.43 1016.5,-203.96 1010.32,-207.25"/>
</g>
<!-- discovery&#45;api -->
<g id="node17" class="node">
<title>discovery&#45;api</title>
<path fill="#7aa6c2" stroke="black" d="M866.4,-396C866.4,-396 809.6,-396 809.6,-396 803.6,-396 797.6,-390 797.6,-384 797.6,-384 797.6,-372 797.6,-372 797.6,-366 803.6,-360 809.6,-360 809.6,-360 866.4,-360 866.4,-360 872.4,-360 878.4,-366 878.4,-372 878.4,-372 878.4,-384 878.4,-384 878.4,-390 872.4,-396 866.4,-396"/>
<text xml:space="preserve" text-anchor="middle" x="838" y="-374.7" font-family="Helvetica,sans-Serif" font-size="11.00" fill="white">discovery&#45;api</text>
</g>
<!-- application&#45;&gt;discovery&#45;api -->
<g id="edge16" class="edge">
<title>application&#45;&gt;discovery&#45;api</title>
<path fill="none" stroke="black" d="M914,-36.49C914,-63.29 914,-116.13 914,-161 914,-161 914,-161 914,-235 914,-279.97 884.01,-324.48 861.71,-351.36"/>
<polygon fill="black" stroke="black" points="859.33,-348.75 855.48,-358.62 864.64,-353.31 859.33,-348.75"/>
</g>
<!-- ui&#45;ngx -->
<g id="node18" class="node">
<title>ui&#45;ngx</title>
<path fill="#999999" stroke="black" d="M1724,-108C1724,-108 1694,-108 1694,-108 1688,-108 1682,-102 1682,-96 1682,-96 1682,-84 1682,-84 1682,-78 1688,-72 1694,-72 1694,-72 1724,-72 1724,-72 1730,-72 1736,-78 1736,-84 1736,-84 1736,-96 1736,-96 1736,-102 1730,-108 1724,-108"/>
<text xml:space="preserve" text-anchor="middle" x="1709" y="-86.7" font-family="Helvetica,sans-Serif" font-size="11.00" fill="white">ui&#45;ngx</text>
</g>
<!-- application&#45;&gt;ui&#45;ngx -->
<g id="edge17" class="edge">
<title>application&#45;&gt;ui&#45;ngx</title>
<path fill="none" stroke="black" d="M948.37,-19.95C1076.81,-23.71 1528.3,-39.05 1668,-72 1668.98,-72.23 1669.98,-72.49 1670.97,-72.76"/>
<polygon fill="black" stroke="black" points="1669.58,-75.99 1680.18,-75.76 1671.75,-69.33 1669.58,-75.99"/>
</g>
<!-- actor&#45;&gt;util -->
<g id="edge18" class="edge">
<title>actor&#45;&gt;util</title>
<path fill="none" stroke="black" d="M386.39,-465C407.12,-475.58 435.8,-490.24 458.63,-501.9"/>
<polygon fill="black" stroke="black" points="456.81,-504.91 467.3,-506.34 459.99,-498.67 456.81,-504.91"/>
</g>
<!-- message -->
<g id="node19" class="node">
<title>message</title>
<path fill="#4f9e4f" stroke="black" d="M903.32,-540C903.32,-540 866.68,-540 866.68,-540 860.68,-540 854.68,-534 854.68,-528 854.68,-528 854.68,-516 854.68,-516 854.68,-510 860.68,-504 866.68,-504 866.68,-504 903.32,-504 903.32,-504 909.32,-504 915.32,-510 915.32,-516 915.32,-516 915.32,-528 915.32,-528 915.32,-534 909.32,-540 903.32,-540"/>
<text xml:space="preserve" text-anchor="middle" x="885" y="-518.7" font-family="Helvetica,sans-Serif" font-size="11.00" fill="white">message</text>
</g>
<!-- actor&#45;&gt;message -->
<g id="edge19" class="edge">
<title>actor&#45;&gt;message</title>
<path fill="none" stroke="black" d="M386.42,-463.62C390.89,-465.31 395.52,-466.85 400,-468 560.09,-509.04 757.88,-518.31 842.91,-520.4"/>
<polygon fill="black" stroke="black" points="842.8,-523.89 852.87,-520.62 842.95,-516.9 842.8,-523.89"/>
</g>
<!-- data -->
<g id="node21" class="node">
<title>data</title>
<path fill="#1a7f37" stroke="black" d="M946,-612C946,-612 916,-612 916,-612 910,-612 904,-606 904,-600 904,-600 904,-588 904,-588 904,-582 910,-576 916,-576 916,-576 946,-576 946,-576 952,-576 958,-582 958,-588 958,-588 958,-600 958,-600 958,-606 952,-612 946,-612"/>
<text xml:space="preserve" text-anchor="middle" x="931" y="-590.7" font-family="Helvetica,sans-Serif" font-size="11.00" fill="white">data</text>
</g>
<!-- util&#45;&gt;data -->
<g id="edge75" class="edge">
<title>util&#45;&gt;data</title>
<path fill="none" stroke="black" d="M523.21,-527.38C597.81,-539.38 805.76,-572.85 892.37,-586.78"/>
<polygon fill="black" stroke="black" points="891.6,-590.2 902.03,-588.34 892.71,-583.29 891.6,-590.2"/>
</g>
<!-- rule&#45;engine&#45;api&#45;&gt;util -->
<g id="edge90" class="edge">
<title>rule&#45;engine&#45;api&#45;&gt;util</title>
<path fill="none" stroke="black" d="M551.75,-252.36C540.65,-261.78 528.06,-274.28 520,-288 478.6,-358.51 471.47,-386.92 482,-468 483.05,-476.12 484.98,-484.76 487.07,-492.66"/>
<polygon fill="black" stroke="black" points="483.66,-493.45 489.76,-502.1 490.39,-491.53 483.66,-493.45"/>
</g>
<!-- rule&#45;engine&#45;api&#45;&gt;cluster&#45;api -->
<g id="edge89" class="edge">
<title>rule&#45;engine&#45;api&#45;&gt;cluster&#45;api</title>
<path fill="none" stroke="black" d="M619.8,-246.45C660.59,-256.97 722.45,-273.13 776,-288 868.87,-313.79 977.06,-345.84 1036.39,-363.59"/>
<polygon fill="black" stroke="black" points="1035.2,-366.88 1045.78,-366.4 1037.21,-360.18 1035.2,-366.88"/>
</g>
<!-- rule&#45;engine&#45;api&#45;&gt;message -->
<g id="edge87" class="edge">
<title>rule&#45;engine&#45;api&#45;&gt;message</title>
<path fill="none" stroke="black" d="M577,-252.4C581.53,-284.45 595.27,-353.42 633,-396 648.22,-413.17 776.92,-472.51 844.27,-502.84"/>
<polygon fill="black" stroke="black" points="842.59,-505.92 853.14,-506.82 845.46,-499.53 842.59,-505.92"/>
</g>
<!-- dao&#45;api -->
<g id="node23" class="node">
<title>dao&#45;api</title>
<path fill="#7aa6c2" stroke="black" d="M456,-324C456,-324 426,-324 426,-324 420,-324 414,-318 414,-312 414,-312 414,-300 414,-300 414,-294 420,-288 426,-288 426,-288 456,-288 456,-288 462,-288 468,-294 468,-300 468,-300 468,-312 468,-312 468,-318 462,-324 456,-324"/>
<text xml:space="preserve" text-anchor="middle" x="441" y="-302.7" font-family="Helvetica,sans-Serif" font-size="11.00" fill="white">dao&#45;api</text>
</g>
<!-- rule&#45;engine&#45;api&#45;&gt;dao&#45;api -->
<g id="edge88" class="edge">
<title>rule&#45;engine&#45;api&#45;&gt;dao&#45;api</title>
<path fill="none" stroke="black" d="M541.53,-252.48C522.26,-262.55 497.99,-275.23 478.13,-285.6"/>
<polygon fill="black" stroke="black" points="476.78,-282.36 469.54,-290.09 480.02,-288.56 476.78,-282.36"/>
</g>
<!-- cluster&#45;api&#45;&gt;stats -->
<g id="edge27" class="edge">
<title>cluster&#45;api&#45;&gt;stats</title>
<path fill="none" stroke="black" d="M1114.79,-391.19C1148.93,-403.51 1201.57,-422.5 1237.11,-435.33"/>
<polygon fill="black" stroke="black" points="1235.53,-438.48 1246.12,-438.58 1237.9,-431.89 1235.53,-438.48"/>
</g>
<!-- cluster&#45;api&#45;&gt;message -->
<g id="edge26" class="edge">
<title>cluster&#45;api&#45;&gt;message</title>
<path fill="none" stroke="black" d="M1069.7,-396.44C1056.27,-416.04 1032.22,-447.74 1005,-468 981.24,-485.69 950.64,-499.09 926.29,-507.99"/>
<polygon fill="black" stroke="black" points="925.29,-504.63 917.02,-511.25 927.61,-511.23 925.29,-504.63"/>
</g>
<!-- cluster&#45;api&#45;&gt;data -->
<g id="edge24" class="edge">
<title>cluster&#45;api&#45;&gt;data</title>
<path fill="none" stroke="black" d="M1073.91,-396.41C1066.05,-414.86 1052.43,-444.52 1037,-468 1012.65,-505.07 978.66,-543.33 955.79,-567.6"/>
<polygon fill="black" stroke="black" points="953.31,-565.12 948.95,-574.78 958.38,-569.95 953.31,-565.12"/>
</g>
<!-- proto -->
<g id="node22" class="node">
<title>proto</title>
<path fill="#4f9e4f" stroke="black" d="M984,-468C984,-468 954,-468 954,-468 948,-468 942,-462 942,-456 942,-456 942,-444 942,-444 942,-438 948,-432 954,-432 954,-432 984,-432 984,-432 990,-432 996,-438 996,-444 996,-444 996,-456 996,-456 996,-462 990,-468 984,-468"/>
<text xml:space="preserve" text-anchor="middle" x="969" y="-446.7" font-family="Helvetica,sans-Serif" font-size="11.00" fill="white">proto</text>
</g>
<!-- cluster&#45;api&#45;&gt;proto -->
<g id="edge25" class="edge">
<title>cluster&#45;api&#45;&gt;proto</title>
<path fill="none" stroke="black" d="M1053.03,-396.48C1038.78,-405.39 1021.28,-416.33 1005.94,-425.91"/>
<polygon fill="black" stroke="black" points="1004.14,-422.91 997.51,-431.18 1007.85,-428.85 1004.14,-422.91"/>
</g>
<!-- version&#45;control&#45;&gt;queue -->
<g id="edge77" class="edge">
<title>version&#45;control&#45;&gt;queue</title>
<path fill="none" stroke="black" d="M284.33,-238.38C441.76,-250.37 972.51,-290.79 1120.44,-302.06"/>
<polygon fill="black" stroke="black" points="1119.85,-305.53 1130.09,-302.8 1120.38,-298.55 1119.85,-305.53"/>
</g>
<!-- version&#45;control&#45;&gt;data -->
<g id="edge76" class="edge">
<title>version&#45;control&#45;&gt;data</title>
<path fill="none" stroke="black" d="M195.57,-248.84C155.55,-261.69 101.94,-280.01 95,-288 68.47,-318.53 76,-336.55 76,-377 76,-377 76,-377 76,-451 76,-499.21 96.03,-516.28 138,-540 204.08,-577.35 742.43,-589.65 892.37,-592.37"/>
<polygon fill="black" stroke="black" points="892.1,-595.86 902.16,-592.54 892.23,-588.86 892.1,-595.86"/>
</g>
<!-- rule&#45;engine&#45;components&#45;&gt;util -->
<g id="edge91" class="edge">
<title>rule&#45;engine&#45;components&#45;&gt;util</title>
<path fill="none" stroke="black" d="M491.37,-91.57C404.46,-96.39 256.5,-119.33 187,-216 157.6,-256.89 176.02,-370.17 297,-468 343.47,-505.58 414.11,-516.68 457.54,-519.86"/>
<polygon fill="black" stroke="black" points="457.05,-523.34 467.24,-520.46 457.48,-516.35 457.05,-523.34"/>
</g>
<!-- rule&#45;engine&#45;components&#45;&gt;rule&#45;engine&#45;api -->
<g id="edge94" class="edge">
<title>rule&#45;engine&#45;components&#45;&gt;rule&#45;engine&#45;api</title>
<path fill="none" stroke="black" d="M560.96,-108.41C563.66,-132.39 568.56,-175.86 571.8,-204.58"/>
<polygon fill="black" stroke="black" points="568.3,-204.84 572.9,-214.39 575.26,-204.06 568.3,-204.84"/>
</g>
<!-- rule&#45;engine&#45;components&#45;&gt;transport&#45;api -->
<g id="edge93" class="edge">
<title>rule&#45;engine&#45;components&#45;&gt;transport&#45;api</title>
<path fill="none" stroke="black" d="M588.92,-108.41C632.76,-133.92 714.52,-181.51 763.33,-209.91"/>
<polygon fill="black" stroke="black" points="761.51,-212.9 771.91,-214.91 765.03,-206.85 761.51,-212.9"/>
</g>
<!-- rule&#45;engine&#45;components&#45;&gt;dao -->
<g id="edge92" class="edge">
<title>rule&#45;engine&#45;components&#45;&gt;dao</title>
<path fill="none" stroke="black" d="M529.28,-108.48C513.4,-117.83 493.7,-129.41 476.85,-139.32"/>
<polygon fill="black" stroke="black" points="475.46,-136.08 468.61,-144.17 479.01,-142.12 475.46,-136.08"/>
</g>
<!-- netty&#45;mqtt -->
<g id="node24" class="node">
<title>netty&#45;mqtt</title>
<path fill="#4f9e4f" stroke="black" d="M156.45,-324C156.45,-324 115.55,-324 115.55,-324 109.55,-324 103.55,-318 103.55,-312 103.55,-312 103.55,-300 103.55,-300 103.55,-294 109.55,-288 115.55,-288 115.55,-288 156.45,-288 156.45,-288 162.45,-288 168.45,-294 168.45,-300 168.45,-300 168.45,-312 168.45,-312 168.45,-318 162.45,-324 156.45,-324"/>
<text xml:space="preserve" text-anchor="middle" x="136" y="-302.7" font-family="Helvetica,sans-Serif" font-size="11.00" fill="white">netty&#45;mqtt</text>
</g>
<!-- rule&#45;engine&#45;components&#45;&gt;netty&#45;mqtt -->
<g id="edge95" class="edge">
<title>rule&#45;engine&#45;components&#45;&gt;netty&#45;mqtt</title>
<path fill="none" stroke="black" d="M491.53,-95.84C400.41,-103.21 243.5,-119.07 192,-144 150.12,-164.28 134.38,-173.26 116,-216 107.55,-235.64 113.57,-259.31 121.16,-277.3"/>
<polygon fill="black" stroke="black" points="117.95,-278.71 125.33,-286.31 124.3,-275.77 117.95,-278.71"/>
</g>
<!-- transport&#45;api&#45;&gt;util -->
<g id="edge73" class="edge">
<title>transport&#45;api&#45;&gt;util</title>
<path fill="none" stroke="black" d="M763.78,-235.8C718.79,-238.64 644.93,-249.4 596,-288 530.55,-339.63 507.21,-442.39 499.49,-492.37"/>
<polygon fill="black" stroke="black" points="496.05,-491.7 498.1,-502.1 502.98,-492.69 496.05,-491.7"/>
</g>
<!-- transport&#45;api&#45;&gt;queue -->
<g id="edge68" class="edge">
<title>transport&#45;api&#45;&gt;queue</title>
<path fill="none" stroke="black" d="M842.05,-242.18C895.73,-252.12 995.31,-270.79 1080,-288 1093.29,-290.7 1107.81,-293.79 1120.74,-296.58"/>
<polygon fill="black" stroke="black" points="1119.62,-299.92 1130.13,-298.62 1121.1,-293.08 1119.62,-299.92"/>
</g>
<!-- transport&#45;api&#45;&gt;stats -->
<g id="edge69" class="edge">
<title>transport&#45;api&#45;&gt;stats</title>
<path fill="none" stroke="black" d="M842.11,-238.21C935.64,-246.17 1166.58,-267.68 1195,-288 1218.15,-304.55 1248.91,-379.22 1264.69,-420.8"/>
<polygon fill="black" stroke="black" points="1261.41,-422.03 1268.2,-430.16 1267.97,-419.57 1261.41,-422.03"/>
</g>
<!-- transport&#45;api&#45;&gt;discovery&#45;api -->
<g id="edge74" class="edge">
<title>transport&#45;api&#45;&gt;discovery&#45;api</title>
<path fill="none" stroke="black" d="M807.29,-252.41C813.23,-276.5 824.01,-320.25 831.09,-348.97"/>
<polygon fill="black" stroke="black" points="827.63,-349.55 833.42,-358.42 834.43,-347.87 827.63,-349.55"/>
</g>
<!-- transport&#45;api&#45;&gt;message -->
<g id="edge71" class="edge">
<title>transport&#45;api&#45;&gt;message</title>
<path fill="none" stroke="black" d="M796.97,-252.47C787.54,-282.64 772.03,-346.06 789,-396 792.86,-407.37 836.55,-461.9 863.64,-495.07"/>
<polygon fill="black" stroke="black" points="860.79,-497.11 869.83,-502.63 866.2,-492.68 860.79,-497.11"/>
</g>
<!-- cache -->
<g id="node20" class="node">
<title>cache</title>
<path fill="#4f9e4f" stroke="black" d="M684,-396C684,-396 654,-396 654,-396 648,-396 642,-390 642,-384 642,-384 642,-372 642,-372 642,-366 648,-360 654,-360 654,-360 684,-360 684,-360 690,-360 696,-366 696,-372 696,-372 696,-384 696,-384 696,-390 690,-396 684,-396"/>
<text xml:space="preserve" text-anchor="middle" x="669" y="-374.7" font-family="Helvetica,sans-Serif" font-size="11.00" fill="white">cache</text>
</g>
<!-- transport&#45;api&#45;&gt;cache -->
<g id="edge72" class="edge">
<title>transport&#45;api&#45;&gt;cache</title>
<path fill="none" stroke="black" d="M763.98,-250.51C745.74,-259.32 724.82,-271.84 710,-288 694.1,-305.34 683.41,-329.92 676.95,-348.85"/>
<polygon fill="black" stroke="black" points="673.62,-347.77 673.92,-358.36 680.29,-349.89 673.62,-347.77"/>
</g>
<!-- transport&#45;api&#45;&gt;data -->
<g id="edge70" class="edge">
<title>transport&#45;api&#45;&gt;data</title>
<path fill="none" stroke="black" d="M785.86,-252.11C762.62,-277.2 724,-326.5 724,-377 724,-377 724,-377 724,-451 724,-531.86 832.74,-570.1 892.59,-585.03"/>
<polygon fill="black" stroke="black" points="891.5,-588.37 902.04,-587.28 893.12,-581.56 891.5,-588.37"/>
</g>
<!-- transport&#45;impl&#45;&gt;transport&#45;api -->
<g id="edge31" class="edge">
<title>transport&#45;impl&#45;&gt;transport&#45;api</title>
<path fill="none" stroke="black" d="M803.75,-180.3C803.65,-187.59 803.52,-196.27 803.41,-204.46"/>
<polygon fill="black" stroke="black" points="799.91,-204.33 803.27,-214.38 806.91,-204.43 799.91,-204.33"/>
</g>
<!-- transport&#45;impl&#45;&gt;queue -->
<g id="edge28" class="edge">
<title>transport&#45;impl&#45;&gt;queue</title>
<path fill="none" stroke="black" d="M845.94,-164.56C899.35,-168.07 993.2,-179.41 1064,-216 1093.6,-231.3 1120.61,-258.49 1138.2,-278.8"/>
<polygon fill="black" stroke="black" points="1135.5,-281.03 1144.62,-286.43 1140.86,-276.53 1135.5,-281.03"/>
</g>
<!-- transport&#45;impl&#45;&gt;discovery&#45;api -->
<g id="edge30" class="edge">
<title>transport&#45;impl&#45;&gt;discovery&#45;api</title>
<path fill="none" stroke="black" d="M825.27,-180.3C835.11,-189.69 845.76,-202.2 851,-216 867.82,-260.33 856.76,-316.32 847.3,-349.25"/>
<polygon fill="black" stroke="black" points="844.07,-347.84 844.51,-358.42 850.77,-349.87 844.07,-347.84"/>
</g>
<!-- transport&#45;impl&#45;&gt;cache -->
<g id="edge96" class="edge">
<title>transport&#45;impl&#45;&gt;cache</title>
<path fill="none" stroke="black" d="M779.97,-180.29C751.75,-202.01 705.91,-242.05 683,-288 673.65,-306.74 670.25,-330.22 669.14,-348.36"/>
<polygon fill="black" stroke="black" points="665.65,-348.03 668.75,-358.16 672.64,-348.31 665.65,-348.03"/>
</g>
<!-- transport&#45;impl&#45;&gt;data -->
<g id="edge29" class="edge">
<title>transport&#45;impl&#45;&gt;data</title>
<path fill="none" stroke="black" d="M761.91,-166.01C705.43,-171.12 602.78,-184.25 521,-216 385.09,-268.76 265.52,-329.49 311,-468 323.4,-505.75 329.41,-520.44 364,-540 454.61,-591.25 779.8,-594.05 892.34,-593.43"/>
<polygon fill="black" stroke="black" points="892.29,-596.93 902.26,-593.36 892.24,-589.93 892.29,-596.93"/>
</g>
<!-- dao&#45;&gt;util -->
<g id="edge83" class="edge">
<title>dao&#45;&gt;util</title>
<path fill="none" stroke="black" d="M412.53,-171.88C389.82,-180.33 357.88,-194.89 336,-216 299.16,-251.54 291.26,-273.03 296,-324 302.03,-388.84 279.6,-419.45 323,-468 357.03,-506.07 417.61,-517.16 457.29,-520.19"/>
<polygon fill="black" stroke="black" points="456.93,-523.67 467.12,-520.79 457.35,-516.69 456.93,-523.67"/>
</g>
<!-- dao&#45;&gt;rule&#45;engine&#45;api -->
<g id="edge85" class="edge">
<title>dao&#45;&gt;rule&#45;engine&#45;api</title>
<path fill="none" stroke="black" d="M467.32,-177.17C485.73,-186.71 510.4,-199.5 531.49,-210.44"/>
<polygon fill="black" stroke="black" points="529.67,-213.44 540.16,-214.94 532.89,-207.22 529.67,-213.44"/>
</g>
<!-- dao&#45;&gt;stats -->
<g id="edge81" class="edge">
<title>dao&#45;&gt;stats</title>
<path fill="none" stroke="black" d="M467.34,-164.33C572.05,-169.58 947.58,-189.86 1064,-216 1153.33,-236.06 1191.05,-224.5 1257,-288 1292.88,-322.56 1292.53,-346.49 1287,-396 1286.11,-403.97 1284.49,-412.49 1282.72,-420.32"/>
<polygon fill="black" stroke="black" points="1279.32,-419.49 1280.35,-430.03 1286.12,-421.14 1279.32,-419.49"/>
</g>
<!-- dao&#45;&gt;discovery&#45;api -->
<g id="edge84" class="edge">
<title>dao&#45;&gt;discovery&#45;api</title>
<path fill="none" stroke="black" d="M451.89,-180.25C466.25,-199.97 492.11,-232.07 521,-252 605.23,-310.12 720.38,-346.77 786.2,-364.43"/>
<polygon fill="black" stroke="black" points="785.08,-367.76 795.64,-366.92 786.87,-360.99 785.08,-367.76"/>
</g>
<!-- dao&#45;&gt;message -->
<g id="edge80" class="edge">
<title>dao&#45;&gt;message</title>
<path fill="none" stroke="black" d="M417.92,-180.49C407.82,-189.85 396.82,-202.27 391,-216 372.26,-260.23 363.81,-281.93 387,-324 478.52,-490.05 740.24,-516.56 842.93,-520.47"/>
<polygon fill="black" stroke="black" points="842.74,-523.97 852.84,-520.79 842.96,-516.97 842.74,-523.97"/>
</g>
<!-- dao&#45;&gt;cache -->
<g id="edge79" class="edge">
<title>dao&#45;&gt;cache</title>
<path fill="none" stroke="black" d="M427.84,-180.44C407.09,-212.56 370.29,-281.63 405,-324 433.09,-358.29 564.4,-370.86 630.62,-375.07"/>
<polygon fill="black" stroke="black" points="630.1,-378.55 640.29,-375.65 630.52,-371.56 630.1,-378.55"/>
</g>
<!-- dao&#45;&gt;data -->
<g id="edge78" class="edge">
<title>dao&#45;&gt;data</title>
<path fill="none" stroke="black" d="M412.68,-164.6C322.21,-171.53 38,-206.81 38,-377 38,-377 38,-377 38,-451 38,-496.15 48.87,-515.82 87,-540 155.58,-583.49 735.97,-591.39 892.33,-592.74"/>
<polygon fill="black" stroke="black" points="892.13,-596.24 902.16,-592.82 892.19,-589.24 892.13,-596.24"/>
</g>
<!-- dao&#45;&gt;dao&#45;api -->
<g id="edge82" class="edge">
<title>dao&#45;&gt;dao&#45;api</title>
<path fill="none" stroke="black" d="M440.12,-180.41C440.29,-204.39 440.6,-247.86 440.8,-276.58"/>
<polygon fill="black" stroke="black" points="437.3,-276.4 440.87,-286.38 444.3,-276.35 437.3,-276.4"/>
</g>
<!-- queue&#45;&gt;util -->
<g id="edge54" class="edge">
<title>queue&#45;&gt;util</title>
<path fill="none" stroke="black" d="M1131.61,-316.03C1082.58,-332.18 976.59,-367.02 887,-396 757.57,-437.86 603.78,-486.79 533.91,-508.97"/>
<polygon fill="black" stroke="black" points="532.96,-505.61 524.48,-511.97 535.07,-512.28 532.96,-505.61"/>
</g>
<!-- queue&#45;&gt;cluster&#45;api -->
<g id="edge57" class="edge">
<title>queue&#45;&gt;cluster&#45;api</title>
<path fill="none" stroke="black" d="M1139.72,-324.3C1130.34,-332.72 1118.91,-342.98 1108.62,-352.21"/>
<polygon fill="black" stroke="black" points="1106.56,-349.36 1101.46,-358.64 1111.24,-354.57 1106.56,-349.36"/>
</g>
<!-- queue&#45;&gt;stats -->
<g id="edge56" class="edge">
<title>queue&#45;&gt;stats</title>
<path fill="none" stroke="black" d="M1173.22,-324.41C1193.42,-349.14 1230.56,-394.59 1253.95,-423.23"/>
<polygon fill="black" stroke="black" points="1251.03,-425.19 1260.06,-430.72 1256.45,-420.76 1251.03,-425.19"/>
</g>
<!-- queue&#45;&gt;discovery&#45;api -->
<g id="edge58" class="edge">
<title>queue&#45;&gt;discovery&#45;api</title>
<path fill="none" stroke="black" d="M1131.63,-312.97C1078.06,-324.65 958.59,-350.7 889.69,-365.73"/>
<polygon fill="black" stroke="black" points="889.17,-362.26 880.15,-367.81 890.67,-369.1 889.17,-362.26"/>
</g>
<!-- queue&#45;&gt;message -->
<g id="edge55" class="edge">
<title>queue&#45;&gt;message</title>
<path fill="none" stroke="black" d="M1154.72,-324.31C1149.46,-343.22 1139.18,-373.76 1123,-396 1093.67,-436.31 1080.35,-443.39 1037,-468 1002.04,-487.84 958.38,-502.12 926.84,-510.82"/>
<polygon fill="black" stroke="black" points="926.02,-507.42 917.26,-513.38 927.83,-514.18 926.02,-507.42"/>
</g>
<!-- queue&#45;&gt;data -->
<g id="edge53" class="edge">
<title>queue&#45;&gt;data</title>
<path fill="none" stroke="black" d="M1159.48,-324.28C1159.33,-342.89 1157.12,-372.93 1146,-396 1106.85,-477.24 1018.09,-540.8 967.71,-571.95"/>
<polygon fill="black" stroke="black" points="966.2,-568.78 959.47,-576.96 969.83,-574.76 966.2,-568.78"/>
</g>
<!-- queue&#45;&gt;proto -->
<g id="edge52" class="edge">
<title>queue&#45;&gt;proto</title>
<path fill="none" stroke="black" d="M1131.71,-314.81C1105.98,-323.11 1067.24,-338.07 1039,-360 1016.92,-377.14 997.77,-402.7 985.11,-422.04"/>
<polygon fill="black" stroke="black" points="982.31,-419.91 979.91,-430.23 988.22,-423.66 982.31,-419.91"/>
</g>
<!-- script&#45;api&#45;&gt;util -->
<g id="edge66" class="edge">
<title>script&#45;api&#45;&gt;util</title>
<path fill="none" stroke="black" d="M1511.54,-394.18C1468.21,-414.97 1385.72,-451.58 1311,-468 1234.73,-484.76 686.26,-511.92 534.71,-519.17"/>
<polygon fill="black" stroke="black" points="534.62,-515.67 524.8,-519.64 534.96,-522.66 534.62,-515.67"/>
</g>
<!-- script&#45;api&#45;&gt;stats -->
<g id="edge65" class="edge">
<title>script&#45;api&#45;&gt;stats</title>
<path fill="none" stroke="black" d="M1511.37,-387.03C1462.5,-399.84 1366.94,-424.9 1313.51,-438.9"/>
<polygon fill="black" stroke="black" points="1312.71,-435.49 1303.93,-441.42 1314.49,-442.27 1312.71,-435.49"/>
</g>
<!-- script&#45;api&#45;&gt;data -->
<g id="edge64" class="edge">
<title>script&#45;api&#45;&gt;data</title>
<path fill="none" stroke="black" d="M1545.52,-396.39C1551.13,-429.69 1557.77,-502.47 1518,-540 1478.12,-577.63 1093.54,-589.4 969.42,-592.24"/>
<polygon fill="black" stroke="black" points="969.67,-588.73 959.75,-592.45 969.82,-595.73 969.67,-588.73"/>
</g>
<!-- remote&#45;js&#45;client&#45;&gt;rule&#45;engine&#45;api -->
<g id="edge61" class="edge">
<title>remote&#45;js&#45;client&#45;&gt;rule&#45;engine&#45;api</title>
<path fill="none" stroke="black" d="M1346.95,-166.65C1241.94,-175 976.7,-196.32 755,-216 713.53,-219.68 666.71,-224.11 631.22,-227.53"/>
<polygon fill="black" stroke="black" points="631.24,-224.01 621.62,-228.45 631.91,-230.98 631.24,-224.01"/>
</g>
<!-- remote&#45;js&#45;client&#45;&gt;queue -->
<g id="edge59" class="edge">
<title>remote&#45;js&#45;client&#45;&gt;queue</title>
<path fill="none" stroke="black" d="M1352.01,-180.43C1330.66,-190.04 1304.4,-202.7 1282,-216 1248.99,-235.61 1213.72,-261.71 1189.45,-280.58"/>
<polygon fill="black" stroke="black" points="1187.3,-277.82 1181.59,-286.74 1191.62,-283.33 1187.3,-277.82"/>
</g>
<!-- remote&#45;js&#45;client&#45;&gt;script&#45;api -->
<g id="edge60" class="edge">
<title>remote&#45;js&#45;client&#45;&gt;script&#45;api</title>
<path fill="none" stroke="black" d="M1438.88,-167.72C1470.44,-173.57 1510.42,-186.67 1532,-216 1560.43,-254.64 1555.29,-313.66 1548.78,-348.48"/>
<polygon fill="black" stroke="black" points="1545.36,-347.73 1546.77,-358.23 1552.21,-349.14 1545.36,-347.73"/>
</g>
<!-- remote&#45;js&#45;client&#45;&gt;message -->
<g id="edge63" class="edge">
<title>remote&#45;js&#45;client&#45;&gt;message</title>
<path fill="none" stroke="black" d="M1397.69,-180.4C1411.64,-236.43 1445.94,-411.82 1346,-468 1274.72,-508.07 1026.61,-517.92 926.93,-520.28"/>
<polygon fill="black" stroke="black" points="926.97,-516.78 917.05,-520.5 927.12,-523.77 926.97,-516.78"/>
</g>
<!-- remote&#45;js&#45;client&#45;&gt;data -->
<g id="edge62" class="edge">
<title>remote&#45;js&#45;client&#45;&gt;data</title>
<path fill="none" stroke="black" d="M1438.94,-167.14C1474.66,-172.69 1523.17,-185.66 1554,-216 1656.84,-317.19 1696.05,-463.06 1574,-540 1522.89,-572.22 1101.17,-587.78 969.87,-591.87"/>
<polygon fill="black" stroke="black" points="969.84,-588.37 959.96,-592.18 970.06,-595.37 969.84,-588.37"/>
</g>
<!-- stats&#45;&gt;data -->
<g id="edge67" class="edge">
<title>stats&#45;&gt;data</title>
<path fill="none" stroke="black" d="M1264.18,-468.45C1250.48,-488.99 1224.9,-522.49 1194,-540 1122.05,-580.78 1023.37,-590.49 969.67,-592.61"/>
<polygon fill="black" stroke="black" points="969.68,-589.11 959.8,-592.92 969.91,-596.1 969.68,-589.11"/>
</g>
<!-- edge&#45;api&#45;&gt;queue -->
<g id="edge38" class="edge">
<title>edge&#45;api&#45;&gt;queue</title>
<path fill="none" stroke="black" d="M1290.09,-248C1263.73,-259.47 1225.18,-276.23 1196.7,-288.61"/>
<polygon fill="black" stroke="black" points="1195.49,-285.32 1187.72,-292.51 1198.28,-291.74 1195.49,-285.32"/>
</g>
<!-- edge&#45;api&#45;&gt;message -->
<g id="edge39" class="edge">
<title>edge&#45;api&#45;&gt;message</title>
<path fill="none" stroke="black" d="M1348.89,-252.5C1360.88,-261.47 1373.49,-273.56 1380,-288 1415.22,-366.1 1380.68,-418.15 1311,-468 1250.11,-511.56 1022.42,-519.39 927.24,-520.75"/>
<polygon fill="black" stroke="black" points="927.25,-517.25 917.29,-520.87 927.33,-524.24 927.25,-517.25"/>
</g>
<!-- edge&#45;api&#45;&gt;data -->
<g id="edge37" class="edge">
<title>edge&#45;api&#45;&gt;data</title>
<path fill="none" stroke="black" d="M1349.81,-239C1406.59,-248.42 1529.19,-277.74 1581,-360 1624.58,-429.18 1605.9,-487.76 1543,-540 1498.94,-576.6 1097.88,-589.09 969.99,-592.17"/>
<polygon fill="black" stroke="black" points="969.92,-588.67 960,-592.4 970.08,-595.67 969.92,-588.67"/>
</g>
<!-- edqs&#45;&gt;util -->
<g id="edge42" class="edge">
<title>edqs&#45;&gt;util</title>
<path fill="none" stroke="black" d="M1000.86,-239.19C934.23,-250.37 758.87,-285.28 633,-360 577.04,-393.22 532.87,-457.67 511.01,-494.14"/>
<polygon fill="black" stroke="black" points="508.24,-491.94 506.21,-502.33 514.28,-495.48 508.24,-491.94"/>
</g>
<!-- edqs&#45;&gt;cluster&#45;api -->
<g id="edge45" class="edge">
<title>edqs&#45;&gt;cluster&#45;api</title>
<path fill="none" stroke="black" d="M1051.96,-252.35C1062.66,-261.59 1074.17,-273.95 1080,-288 1087.89,-306.99 1087.84,-330.29 1085.98,-348.28"/>
<polygon fill="black" stroke="black" points="1082.54,-347.64 1084.72,-358.01 1089.48,-348.54 1082.54,-347.64"/>
</g>
<!-- edqs&#45;&gt;queue -->
<g id="edge46" class="edge">
<title>edqs&#45;&gt;queue</title>
<path fill="none" stroke="black" d="M1055.46,-249.67C1074.68,-259.94 1100.57,-273.78 1121.66,-285.05"/>
<polygon fill="black" stroke="black" points="1119.77,-288.01 1130.24,-289.63 1123.07,-281.83 1119.77,-288.01"/>
</g>
<!-- edqs&#45;&gt;stats -->
<g id="edge44" class="edge">
<title>edqs&#45;&gt;stats</title>
<path fill="none" stroke="black" d="M1055.44,-235.8C1096.85,-238.31 1175.99,-248.39 1228,-288 1257.47,-310.45 1259.33,-324.52 1270,-360 1275.87,-379.51 1277.02,-402.48 1276.76,-420.2"/>
<polygon fill="black" stroke="black" points="1273.27,-419.9 1276.44,-430.01 1280.26,-420.13 1273.27,-419.9"/>
</g>
<!-- edqs&#45;&gt;discovery&#45;api -->
<g id="edge47" class="edge">
<title>edqs&#45;&gt;discovery&#45;api</title>
<path fill="none" stroke="black" d="M1010.82,-252.18C991.58,-270.97 958.99,-301.42 928,-324 913.21,-334.78 896.1,-345.29 880.8,-354.08"/>
<polygon fill="black" stroke="black" points="879.34,-350.88 872.36,-358.84 882.79,-356.97 879.34,-350.88"/>
</g>
<!-- edqs&#45;&gt;message -->
<g id="edge43" class="edge">
<title>edqs&#45;&gt;message</title>
<path fill="none" stroke="black" d="M1019.27,-252.46C995.23,-300.54 927.92,-435.17 898.76,-493.49"/>
<polygon fill="black" stroke="black" points="895.63,-491.91 894.29,-502.41 901.9,-495.04 895.63,-491.91"/>
</g>
<!-- edqs&#45;&gt;data -->
<g id="edge41" class="edge">
<title>edqs&#45;&gt;data</title>
<path fill="none" stroke="black" d="M1055.22,-238.17C1109.05,-244.92 1226.53,-262.25 1257,-288 1320.79,-341.92 1345.45,-391.91 1311,-468 1291,-512.18 1272.71,-518.98 1229,-540 1142.83,-581.44 1028.6,-590.75 969.74,-592.66"/>
<polygon fill="black" stroke="black" points="969.8,-589.16 959.9,-592.92 969.99,-596.16 969.8,-589.16"/>
</g>
<!-- edqs&#45;&gt;proto -->
<g id="edge40" class="edge">
<title>edqs&#45;&gt;proto</title>
<path fill="none" stroke="black" d="M1023.36,-252.41C1018.56,-270.36 1010.83,-299.16 1004,-324 994.87,-357.2 984.17,-395.3 977.03,-420.63"/>
<polygon fill="black" stroke="black" points="973.68,-419.59 974.33,-430.17 980.42,-421.5 973.68,-419.59"/>
</g>
<!-- discovery&#45;api&#45;&gt;message -->
<g id="edge36" class="edge">
<title>discovery&#45;api&#45;&gt;message</title>
<path fill="none" stroke="black" d="M843.76,-396.41C851.73,-420.5 866.22,-464.25 875.72,-492.97"/>
<polygon fill="black" stroke="black" points="872.4,-494.06 878.86,-502.45 879.04,-491.86 872.4,-494.06"/>
</g>
<!-- discovery&#45;api&#45;&gt;proto -->
<g id="edge35" class="edge">
<title>discovery&#45;api&#45;&gt;proto</title>
<path fill="none" stroke="black" d="M870.72,-396.48C889.22,-406.37 912.42,-418.77 931.64,-429.03"/>
<polygon fill="black" stroke="black" points="929.75,-432 940.22,-433.62 933.05,-425.82 929.75,-432"/>
</g>
<!-- message&#45;&gt;data -->
<g id="edge48" class="edge">
<title>message&#45;&gt;data</title>
<path fill="none" stroke="black" d="M896.37,-540.3C901.55,-548.19 907.8,-557.7 913.56,-566.45"/>
<polygon fill="black" stroke="black" points="910.51,-568.2 918.93,-574.63 916.36,-564.35 910.51,-568.2"/>
</g>
<!-- cache&#45;&gt;util -->
<g id="edge22" class="edge">
<title>cache&#45;&gt;util</title>
<path fill="none" stroke="black" d="M647.79,-396.41C617.22,-421.5 560.67,-467.92 525.88,-496.47"/>
<polygon fill="black" stroke="black" points="523.79,-493.66 518.29,-502.71 528.24,-499.07 523.79,-493.66"/>
</g>
<!-- cache&#45;&gt;message -->
<g id="edge21" class="edge">
<title>cache&#45;&gt;message</title>
<path fill="none" stroke="black" d="M696.29,-390.47C718.48,-400.27 750.21,-415.38 776,-432 792.24,-442.46 830,-473.95 856.51,-496.51"/>
<polygon fill="black" stroke="black" points="853.98,-498.96 863.86,-502.79 858.53,-493.63 853.98,-498.96"/>
</g>
<!-- cache&#45;&gt;data -->
<g id="edge20" class="edge">
<title>cache&#45;&gt;data</title>
<path fill="none" stroke="black" d="M668.03,-396.35C667.19,-429.25 670.36,-500.91 710,-540 735.51,-565.15 836.02,-581.29 892.3,-588.54"/>
<polygon fill="black" stroke="black" points="891.74,-592 902.09,-589.77 892.61,-585.06 891.74,-592"/>
</g>
<!-- cache&#45;&gt;proto -->
<g id="edge23" class="edge">
<title>cache&#45;&gt;proto</title>
<path fill="none" stroke="black" d="M696.42,-385.4C750.09,-397.92 869.15,-425.7 930.62,-440.04"/>
<polygon fill="black" stroke="black" points="929.75,-443.43 940.28,-442.3 931.34,-436.62 929.75,-443.43"/>
</g>
<!-- proto&#45;&gt;util -->
<g id="edge51" class="edge">
<title>proto&#45;&gt;util</title>
<path fill="none" stroke="black" d="M941.53,-455.07C861.34,-466.93 627.46,-501.55 534.62,-515.28"/>
<polygon fill="black" stroke="black" points="534.13,-511.82 524.75,-516.74 535.16,-518.74 534.13,-511.82"/>
</g>
<!-- proto&#45;&gt;message -->
<g id="edge50" class="edge">
<title>proto&#45;&gt;message</title>
<path fill="none" stroke="black" d="M948.24,-468.3C938.04,-476.8 925.58,-487.19 914.42,-496.49"/>
<polygon fill="black" stroke="black" points="912.42,-493.59 906.98,-502.68 916.9,-498.97 912.42,-493.59"/>
</g>
<!-- proto&#45;&gt;data -->
<g id="edge49" class="edge">
<title>proto&#45;&gt;data</title>
<path fill="none" stroke="black" d="M964.34,-468.41C957.9,-492.5 946.19,-536.25 938.5,-564.97"/>
<polygon fill="black" stroke="black" points="935.17,-563.86 935.97,-574.43 941.94,-565.67 935.17,-563.86"/>
</g>
<!-- dao&#45;api&#45;&gt;cluster&#45;api -->
<g id="edge33" class="edge">
<title>dao&#45;api&#45;&gt;cluster&#45;api</title>
<path fill="none" stroke="black" d="M468.5,-310.01C568.28,-320.92 911.89,-358.5 1035.91,-372.07"/>
<polygon fill="black" stroke="black" points="1035.39,-375.53 1045.71,-373.14 1036.15,-368.57 1035.39,-375.53"/>
</g>
<!-- dao&#45;api&#45;&gt;message -->
<g id="edge34" class="edge">
<title>dao&#45;api&#45;&gt;message</title>
<path fill="none" stroke="black" d="M460.09,-324.28C482.31,-343.72 520.76,-375.28 558,-396 654.95,-449.94 779.9,-490.51 843.62,-509.35"/>
<polygon fill="black" stroke="black" points="842.39,-512.64 852.97,-512.09 844.35,-505.92 842.39,-512.64"/>
</g>
<!-- dao&#45;api&#45;&gt;data -->
<g id="edge32" class="edge">
<title>dao&#45;api&#45;&gt;data</title>
<path fill="none" stroke="black" d="M413.67,-323.02C369.16,-351.22 289.22,-412.09 323,-468 382.72,-566.85 768.64,-587.8 892.67,-592"/>
<polygon fill="black" stroke="black" points="892.22,-595.49 902.33,-592.31 892.44,-588.49 892.22,-595.49"/>
</g>
<!-- netty&#45;mqtt&#45;&gt;util -->
<g id="edge86" class="edge">
<title>netty&#45;mqtt&#45;&gt;util</title>
<path fill="none" stroke="black" d="M142.51,-324.25C156.52,-358.66 193.11,-435.32 252,-468 317.97,-504.61 407.02,-515.94 457.27,-519.44"/>
<polygon fill="black" stroke="black" points="456.87,-522.92 467.07,-520.05 457.31,-515.93 456.87,-522.92"/>
</g>
</g>
</svg>
